<svg id="Слой_1" data-name="Слой 1" xmlns="http://www.w3.org/2000/svg" xmlns:xlink="http://www.w3.org/1999/xlink" viewBox="0 0 737 480"><defs><style>.cls-1{fill:#fff;stroke:#000;stroke-miterlimit:10;}.cls-2{fill:url(#Безымянный_градиент_11);}.cls-3{fill:url(#Безымянный_градиент_4);}.cls-4{fill:#f2f2f2;}.cls-5{fill:url(#Безымянный_градиент_13);}</style><linearGradient id="Безымянный_градиент_11" x1="150.56" y1="240" x2="630.56" y2="240" gradientUnits="userSpaceOnUse"><stop offset="0" stop-color="#cce0f4"/><stop offset="0.12" stop-color="#afc3d8"/><stop offset="0.31" stop-color="#889ab1"/><stop offset="0.5" stop-color="#6a7b92"/><stop offset="0.68" stop-color="#54647d"/><stop offset="0.85" stop-color="#47576f"/><stop offset="1" stop-color="#42526b"/></linearGradient><linearGradient id="Безымянный_градиент_4" x1="319.92" y1="687.05" x2="320.13" y2="47.05" gradientUnits="userSpaceOnUse"><stop offset="0" stop-color="#cce0f4"/><stop offset="0.06" stop-color="#c3d7eb"/><stop offset="0.15" stop-color="#aabdd2"/><stop offset="0.26" stop-color="#8294aa"/><stop offset="0.4" stop-color="#4a5a73"/><stop offset="0.56" stop-color="#03112d"/><stop offset="0.56" stop-color="#000e2a"/><stop offset="0.57" stop-color="#1e9cd7"/><stop offset="0.87" stop-color="#0075be"/></linearGradient><linearGradient id="Безымянный_градиент_13" x1="115.11" y1="138" x2="694.11" y2="138" gradientUnits="userSpaceOnUse"><stop offset="0" stop-color="#cce0f4"/><stop offset="0.16" stop-color="#b2e8ca"/><stop offset="0.34" stop-color="#9af1a1"/><stop offset="0.52" stop-color="#87f782"/><stop offset="0.69" stop-color="#79fb6b"/><stop offset="0.86" stop-color="#71fe5e"/><stop offset="1" stop-color="#6eff59"/></linearGradient></defs><title>Maket</title><path class="cls-1" d="M-.5,407.5" transform="translate(0)"/><rect class="cls-2" x="80" y="-80" width="480" height="640" transform="translate(80 560) rotate(-90)"/><path class="cls-3" d="M403.06,400a70.26,70.26,0,0,1-46.13-17.36,55.47,55.47,0,0,0-72.86,0A70.26,70.26,0,0,1,237.94,400H0v80H640V400Z" transform="translate(0)"/><image width="50" height="50" transform="translate(562 416)" xlink:href="icons8-%D0%B2%D0%B0%D0%B9-%D1%84%D0%B0%D0%B9-50.png"/><image width="50" height="50" transform="translate(687)" xlink:href="icons8-%D0%B2%D1%85%D0%BE%D0%B4-%D0%B2-%D1%81%D0%B8%D1%81%D1%82%D0%B5%D0%BC%D1%83,-%D0%B2-%D0%BA%D1%80%D1%83%D0%B6%D0%BA%D0%B5,-%D1%81%D1%82%D1%80%D0%B5%D0%BB%D0%BA%D0%B0-%D0%B2%D0%BF%D1%80%D0%B0%D0%B2%D0%BE-50.png"/><image width="50" height="50" transform="translate(579 335)" xlink:href="icons8-%D0%B7%D0%B0%D0%BA%D1%80%D1%8B%D1%82%D1%8C-%D0%BE%D0%BA%D0%BD%D0%BE-50.png"/><image width="50" height="50" transform="translate(444 416)" xlink:href="icons8-%D0%BA%D0%BD%D0%B8%D0%B3%D0%B0-50.png"/><circle class="cls-4" cx="320" cy="416" r="34"/><image width="50" height="50" transform="translate(294 391)" xlink:href="icons8-%D1%82%D0%B5%D0%BB%D0%B5%D1%84%D0%BE%D0%BD-50.png"/><image width="50" height="50" transform="translate(33 416)" xlink:href="Wifi.png"/><image width="50" height="50" transform="translate(160 416)" xlink:href="%D0%9A%D0%BE%D0%BD%D0%B2%D0%B5%D1%80%D1%82%D0%B5%D1%80.png"/><rect class="cls-5" x="30" y="107" width="579" height="62" rx="31"/><rect class="cls-4" x="31" y="203" width="579" height="37" rx="18.5"/><rect class="cls-4" x="31" y="250" width="579" height="37" rx="18.5"/></svg>